<svg width="20px" height="20px" style="enable-background:new 0 0 490.2 490.2" xmlns="http://www.w3.org/2000/svg" xml:space="preserve" viewBox="0 0 490.2 490.2" version="1.1" y="0px" x="0px" xmlns:xlink="http://www.w3.org/1999/xlink">
		<path d="m418 418c95.6-95.6 95.6-251 0-347s-251-95.6-347 0-95.6 251 0 347 252 96 347 0zm-329-329c86.1-86.1 226-86.1 312 0s86.1 226 0 312-226 86.1-312 0-86-226 0-312z"/>
		<path d="m245 337c3.4 0 6.4-1.4 8.7-3.6 2.2-2.2 3.6-5.3 3.6-8.7v-67.3h67.3c3.4 0 6.4-1.4 8.7-3.6 2.2-2.2 3.6-5.3 3.6-8.7 0-6.8-5.5-12.3-12.2-12.2h-67.3v-67.3c0-6.8-5.5-12.3-12.2-12.2-6.8 0-12.3 5.5-12.2 12.2v67.3h-67.3c-6.8 0-12.3 5.5-12.2 12.2 0 6.8 5.5 12.3 12.2 12.2h67.3v67.3c-2 8 3 14 10 14z"/>
</svg>
